<?xml version="1.0" standalone="no"?>
<!DOCTYPE svg PUBLIC "-//W3C//DTD SVG 20010904//EN"
 "http://www.w3.org/TR/2001/REC-SVG-20010904/DTD/svg10.dtd">
<svg version="1.0" xmlns="http://www.w3.org/2000/svg"
 width="300.000000pt" height="281.000000pt" viewBox="0 0 300.000000 281.000000"
 preserveAspectRatio="xMidYMid meet">
<metadata>
Created by potrace 1.16, written by Peter Selinger 2001-2019
</metadata>
<g transform="translate(0.000000,281.000000) scale(0.100000,-0.100000)"
fill="#000000" stroke="none">
<path d="M773 2163 c-347 -269 -638 -500 -647 -515 -44 -72 9 -168 93 -168 47
0 9 -28 721 524 267 207 490 376 495 376 6 0 237 -176 515 -392 691 -535 654
-508 702 -508 32 0 47 7 74 34 37 37 45 82 23 129 -6 13 -127 114 -270 223
l-259 199 0 221 c0 201 -2 222 -18 237 -15 14 -42 17 -158 17 -177 0 -177 0
-184 -109 l-5 -82 -195 151 c-152 117 -202 150 -225 150 -25 0 -149 -91 -662
-487z"/>
<path d="M952 1893 l-481 -378 -1 -503 c0 -559 -1 -547 66 -599 26 -19 50 -27
98 -30 59 -5 66 -8 76 -34 17 -41 74 -96 128 -123 112 -57 238 -70 379 -41 97
20 116 28 144 62 16 19 40 33 69 39 39 8 49 7 73 -11 21 -14 41 -19 73 -17 66
3 85 3 134 -4 37 -4 51 -1 80 18 30 20 41 22 72 14 52 -13 123 15 149 59 l20
33 134 4 c145 3 163 9 209 72 21 27 21 40 23 544 l3 517 -465 365 c-256 201
-474 371 -483 378 -16 11 -75 -32 -500 -365z m764 -88 c25 -10 41 -12 54 -5
57 31 120 -2 140 -71 13 -46 12 -166 -3 -209 -22 -66 -86 -46 -67 21 15 51 12
162 -4 185 -19 25 -31 12 -16 -17 19 -34 6 -127 -24 -187 -14 -28 -26 -61 -26
-72 0 -12 28 -104 61 -204 l61 -183 36 1 c30 1 39 -5 58 -32 56 -82 37 -288
-43 -462 -28 -61 -31 -76 -20 -85 18 -13 37 -49 37 -69 0 -25 -38 -56 -69 -56
-15 0 -45 11 -65 25 -45 30 -46 30 -46 3 0 -30 -28 -58 -58 -58 -31 0 -62 26
-62 52 0 10 -7 18 -15 18 -8 0 -15 -8 -15 -17 0 -24 -30 -53 -55 -53 -34 0
-58 24 -58 59 0 17 -1 31 -2 31 -1 0 -19 -13 -40 -30 -41 -33 -89 -40 -99 -14
-4 10 7 31 29 57 49 57 77 136 83 233 6 101 -4 130 -74 237 -61 91 -87 144
-78 159 4 5 21 7 40 3 27 -5 34 -3 34 10 0 9 25 89 55 178 30 89 55 176 55
193 0 18 -12 56 -26 84 -27 54 -36 130 -21 183 6 22 5 28 -5 25 -22 -8 -33
-93 -20 -166 13 -75 2 -100 -37 -87 -26 8 -36 54 -35 160 0 85 18 136 53 155
25 13 77 13 102 0 14 -8 26 -7 46 4 36 20 94 20 139 1z m-598 -340 c80 -2 89
0 113 22 l27 25 7 -54 c4 -29 16 -64 26 -77 44 -55 28 -155 -32 -205 l-30 -25
16 -66 c20 -87 34 -118 88 -196 71 -104 79 -124 78 -198 -1 -129 -46 -218
-134 -267 -48 -27 -60 -29 -157 -29 -112 0 -160 15 -204 64 -24 27 -42 27 -57
0 -18 -34 3 -64 65 -94 48 -24 68 -27 145 -27 49 0 112 5 140 12 28 7 63 9 77
6 21 -6 25 -12 22 -39 -3 -29 -7 -33 -53 -46 -29 -8 -103 -14 -175 -15 -124
-1 -126 -1 -195 34 -46 23 -78 47 -92 69 -40 60 -25 146 32 188 23 16 25 22
16 46 -16 40 -13 152 3 192 8 19 32 60 54 92 56 82 79 131 98 206 l16 66 -35
33 c-44 42 -61 97 -46 153 6 22 17 47 24 55 8 8 17 39 21 68 l7 53 23 -22 c21
-19 36 -23 112 -24z"/>
</g>
</svg>
